<?xml version="1.0" encoding="utf-8"?>
<!-- Generator: Adobe Illustrator 25.2.0, SVG Export Plug-In . SVG Version: 6.00 Build 0)  -->
<svg version="1.1" id="katman_1" xmlns="http://www.w3.org/2000/svg" x="0px" y="0px"
     viewBox="0 0 156.52 104.37" style="enable-background:new 0 0 156.52 104.37;" xml:space="preserve">
<g>
	<g>
		<path d="M79.31,77.94c-0.99,0-1.79,0.8-1.79,1.79c0,0.99,0.8,1.79,1.79,1.79s1.79-0.8,1.79-1.79
			C81.1,78.74,80.3,77.94,79.31,77.94z"/>
		<circle cx="86.22" cy="72.82" r="1.79"/>
		<path d="M86.22,43.41c-0.99,0-1.79,0.8-1.79,1.79c0,0.99,0.8,1.79,1.79,1.79c0.99,0,1.79-0.8,1.79-1.79
			C88.01,44.21,87.2,43.41,86.22,43.41z"/>
		<circle cx="93.12" cy="65.92" r="1.79"/>
		<path d="M100.03,57.22c-0.99,0-1.79,0.8-1.79,1.79c0,0.99,0.8,1.79,1.79,1.79c0.99,0,1.79-0.8,1.79-1.79
			C101.82,58.02,101.02,57.22,100.03,57.22z"/>
		<circle cx="65.5" cy="79.73" r="1.79"/>
		<circle cx="72.4" cy="72.82" r="1.79"/>
		<path d="M79.31,64.13c-0.99,0-1.79,0.8-1.79,1.79c0,0.99,0.8,1.79,1.79,1.79s1.79-0.8,1.79-1.79
			C81.1,64.93,80.3,64.13,79.31,64.13z"/>
		<circle cx="86.22" cy="59.01" r="1.79"/>
		<path d="M106.94,50.31c-0.99,0-1.79,0.8-1.79,1.79c0,0.99,0.8,1.79,1.79,1.79c0.99,0,1.79-0.8,1.79-1.79
			C108.73,51.11,107.93,50.31,106.94,50.31z"/>
		<path d="M93.12,50.31c-0.99,0-1.79,0.8-1.79,1.79c0,0.99,0.8,1.79,1.79,1.79s1.79-0.8,1.79-1.79
			C94.91,51.11,94.11,50.31,93.12,50.31z"/>
		<path d="M79.31,22.68c-0.99,0-1.79,0.8-1.79,1.79c0,0.99,0.8,1.79,1.79,1.79s1.79-0.8,1.79-1.79
			C81.1,23.49,80.3,22.68,79.31,22.68z"/>
		<circle cx="86.22" cy="31.38" r="1.79"/>
		<circle cx="93.12" cy="38.29" r="1.79"/>
		<path d="M100.03,43.41c-0.99,0-1.79,0.8-1.79,1.79c0,0.99,0.8,1.79,1.79,1.79c0.99,0,1.79-0.8,1.79-1.79
			C101.82,44.21,101.02,43.41,100.03,43.41z"/>
		<circle cx="65.5" cy="24.47" r="1.79"/>
		<circle cx="72.4" cy="31.38" r="1.79"/>
		<path d="M79.31,36.5c-0.99,0-1.79,0.8-1.79,1.79s0.8,1.79,1.79,1.79s1.79-0.8,1.79-1.79S80.3,36.5,79.31,36.5z"/>
	</g>
	<polygon points="118.26,22.9 100.68,40.49 111.3,51.1 139.5,22.9 	"/>
	<polygon points="139.5,81.3 111.3,53.1 100.68,63.72 118.26,81.3 	"/>
	<polygon points="36.35,67.78 27.3,52.1 36.35,36.42 71.3,36.42 57.74,22.9 27.04,22.9 10.18,52.1 27.04,81.3 58.09,81.3 
		71.3,67.78 	"/>
</g>
</svg>
